#N canvas 569 167 574 491 10;
#X obj 235 198 f;
#X obj 265 198 + 1;
#X obj 200 159 f 0, f 4;
#X obj 158 380 delay;
#X msg 215 334 stop;
#X obj 295 260 ==;
#X obj 295 285 sel 1;
#X obj 311 165 array size \$1;
#X obj 271 340 tabread \$1;
#X obj 158 419 outlet;
#X obj 295 422 outlet;
#X obj 236 220 t f b f f;
#X obj 158 58 inlet;
#X obj 271 367 max 1e-12;
#X obj 158 85 t b b b;
#X obj 295 308 t b b;
#X connect 0 0 1 0;
#X connect 0 0 11 0;
#X connect 1 0 0 1;
#X connect 2 0 0 1;
#X connect 2 0 3 1;
#X connect 3 0 0 0;
#X connect 3 0 9 0;
#X connect 4 0 3 0;
#X connect 5 0 6 0;
#X connect 6 0 15 0;
#X connect 7 0 5 1;
#X connect 8 0 13 0;
#X connect 11 0 5 0;
#X connect 11 1 3 0;
#X connect 11 2 8 0;
#X connect 12 0 14 0;
#X connect 13 0 3 1;
#X connect 14 0 3 0;
#X connect 14 1 2 0;
#X connect 14 2 7 0;
#X connect 15 0 10 0;
#X connect 15 1 4 0;
