#N canvas 1001 184 641 458 10;
#X obj 220 303 until;
#X obj 220 370 f;
#X obj 251 373 + 1;
#X obj 220 414 outlet;
#X obj 220 81 f \$2;
#X obj 341 86 f \$1;
#X obj 201 9 inlet;
#X obj 362 10 inlet;
#X obj 411 10 inlet;
#X obj 220 249 -;
#X obj 220 273 *;
#X obj 239 212 - 1;
#X obj 239 188 f;
#X obj 220 105 t f b f;
#X obj 146 66 s \$0-done;
#X obj 408 384 r \$0-done;
#X obj 408 407 outlet;
#X obj 343 152 >;
#X obj 343 175 * 2;
#X obj 343 198 - 1;
#X obj 300 372 f;
#X obj 331 375 + 1;
#X obj 220 329 t b b;
#X obj 300 413 outlet;
#X obj 201 36 t b b b b;
#X obj 420 84 f 0;
#X connect 0 0 22 0;
#X connect 1 0 2 0;
#X connect 1 0 3 0;
#X connect 2 0 1 1;
#X connect 4 0 13 0;
#X connect 5 0 1 1;
#X connect 5 0 12 1;
#X connect 5 0 17 1;
#X connect 6 0 24 0;
#X connect 7 0 5 1;
#X connect 8 0 4 1;
#X connect 9 0 10 0;
#X connect 10 0 0 0;
#X connect 11 0 9 1;
#X connect 12 0 11 0;
#X connect 13 0 9 0;
#X connect 13 1 12 0;
#X connect 13 2 17 0;
#X connect 15 0 16 0;
#X connect 17 0 18 0;
#X connect 18 0 19 0;
#X connect 19 0 2 1;
#X connect 19 0 10 1;
#X connect 19 0 11 1;
#X connect 20 0 21 0;
#X connect 20 0 23 0;
#X connect 21 0 20 1;
#X connect 22 0 1 0;
#X connect 22 1 20 0;
#X connect 24 0 14 0;
#X connect 24 1 4 0;
#X connect 24 2 5 0;
#X connect 24 3 25 0;
#X connect 25 0 20 1;
