#N canvas 149 32 846 683 10;
#X obj 282 286 list length;
#X obj 255 262 t a a;
#X obj 201 394 * 1;
#X obj 201 613 outlet;
#X obj 255 343 array set \$0-map;
#X obj 256 377 array define \$0-map;
#X obj 201 7 inlet;
#X obj 362 8 inlet;
#X obj 282 315 array size \$0-map;
#X obj 216 350 - 1;
#X obj 236 142 -;
#X obj 201 168 /;
#X obj 201 144 -;
#X obj 201 191 abs;
#N canvas 733 70 631 348 route 0;
#X obj 55 39 inlet;
#N canvas 60 2 640 572 init 0;
#X obj 157 17 inlet;
#X obj 157 53 f \$0;
#X msg 157 82 \; \$1-in 0 1 \; \$1-out 0 1 \; \$1-interpol lin \;;
#X connect 0 0 1 0;
#X connect 1 0 2 0;
#X restore 199 92 pd init;
#N canvas 403 2 657 688 args 0;
#X obj 301 293 list fromsymbol;
#X obj 214 153 until;
#X obj 214 178 f;
#X obj 249 181 + 1;
#X obj 261 154 f 0;
#X msg 214 205 get \$1 1;
#X obj 214 230 list store;
#X obj 214 103 t b b l, f 10;
#X obj 421 324 list fromsymbol;
#X obj 214 265 route float symbol;
#X obj 244 416 list tosymbol;
#X obj 382 573 list;
#X obj 283 442 t l;
#X obj 214 487 list prepend;
#X obj 382 396 sel, f 6;
#X obj 294 230 s \$0-stoplistcount;
#X obj 241 129 r \$0-stoplistcount;
#X obj 310 486 r \$0-stoplistcount;
#X obj 420 502 r \$0-stoplistcount;
#X obj 214 80 pdcontrol;
#X msg 214 57 args 0;
#X obj 382 596 list trim;
#X obj 421 301 symbol -;
#X obj 301 316 t a a, f 14;
#X msg 382 367 \$1;
#X obj 382 649 outlet;
#X obj 420 525 t b b;
#X obj 382 620 route bang;
#X obj 244 379 route;
#X obj 214 32 t b b, f 30;
#X obj 214 11 inlet;
#X connect 0 0 23 0;
#X connect 1 0 2 0;
#X connect 2 0 3 0;
#X connect 2 0 5 0;
#X connect 3 0 2 1;
#X connect 4 0 2 1;
#X connect 5 0 6 0;
#X connect 6 0 9 0;
#X connect 6 1 15 0;
#X connect 7 0 1 0;
#X connect 7 1 4 0;
#X connect 7 2 6 1;
#X connect 8 0 14 1;
#X connect 8 0 28 1;
#X connect 9 0 13 0;
#X connect 9 1 0 0;
#X connect 10 0 13 0;
#X connect 11 0 21 0;
#X connect 12 0 13 1;
#X connect 13 0 12 0;
#X connect 13 0 11 1;
#X connect 14 0 11 0;
#X connect 14 0 13 1;
#X connect 16 0 1 1;
#X connect 17 0 13 1;
#X connect 18 0 26 0;
#X connect 19 0 7 0;
#X connect 20 0 19 0;
#X connect 21 0 27 0;
#X connect 22 0 8 0;
#X connect 23 0 28 0;
#X connect 23 1 24 0;
#X connect 24 0 14 0;
#X connect 26 0 11 1;
#X connect 26 1 11 0;
#X connect 27 1 25 0;
#X connect 28 0 10 0;
#X connect 28 1 10 0;
#X connect 29 0 20 0;
#X connect 29 1 22 0;
#X connect 30 0 29 0;
#X restore 118 94 pd args;
#X obj 118 41 loadbang;
#X obj 118 65 t b b, f 14;
#X obj 97 299 s \$0-in;
#X obj 168 300 s \$0-out;
#X obj 97 179 route in out interpol;
#X obj 246 300 s \$0-interpol;
#X obj 256 203 list prepend no method for;
#X obj 256 226 list trim;
#X obj 256 249 print mapp;
#X connect 0 0 7 0;
#X connect 2 0 7 0;
#X connect 3 0 4 0;
#X connect 4 0 2 0;
#X connect 4 1 1 0;
#X connect 7 0 5 0;
#X connect 7 1 6 0;
#X connect 7 2 8 0;
#X connect 7 3 9 0;
#X connect 9 0 10 0;
#X connect 10 0 11 0;
#X restore 362 40 pd route;
#X obj 237 53 r \$0-in;
#X obj 237 76 unpack;
#X obj 255 226 r \$0-out;
#N canvas 1 2 461 470 cubic 0;
#X obj 64 278 expr .5*($f2-$f1);
#X obj 64 199 - 1;
#X obj 215 208 + 1;
#X obj 300 165 + 2;
#X obj 138 348 expr $f1-2.5*$f2+2*$f3-0.5*$f4;
#X obj 64 249 t f f f;
#X obj 212 383 expr .5*($f4-$f1)+1.5*($f2-$f3);
#X obj 64 420 expr (($f3*$f5+$f2)*$f5+$f1)*$f5+$f4, f 50;
#X obj 166 15 inlet;
#X obj 64 226 tabread \$0-map;
#X obj 182 284 tabread \$0-map;
#X obj 215 230 tabread \$0-map;
#X obj 300 188 tabread \$0-map;
#X obj 64 443 outlet;
#X obj 376 78 i;
#X obj 361 100 -;
#X obj 166 37 t f f f;
#X obj 166 107 t f f f f;
#X obj 166 81 i;
#X connect 0 0 7 0;
#X connect 1 0 9 0;
#X connect 2 0 11 0;
#X connect 3 0 12 0;
#X connect 4 0 7 1;
#X connect 5 0 0 0;
#X connect 5 1 4 0;
#X connect 5 2 6 0;
#X connect 6 0 7 2;
#X connect 7 0 13 0;
#X connect 8 0 16 0;
#X connect 9 0 5 0;
#X connect 10 0 4 1;
#X connect 10 0 6 1;
#X connect 10 0 7 3;
#X connect 11 0 0 1;
#X connect 11 0 4 2;
#X connect 11 0 6 2;
#X connect 12 0 4 3;
#X connect 12 0 6 3;
#X connect 14 0 15 1;
#X connect 15 0 7 4;
#X connect 16 0 18 0;
#X connect 16 1 15 0;
#X connect 16 2 14 0;
#X connect 17 0 1 0;
#X connect 17 1 10 0;
#X connect 17 2 2 0;
#X connect 17 3 3 0;
#X connect 18 0 17 0;
#X restore 255 524 pd cubic;
#X obj 201 462 list trim;
#X obj 201 439 list prepend lin;
#X obj 294 415 r \$0-interpol;
#X obj 201 108 clip 0 1;
#X obj 201 485 route lin cubic curve;
#N canvas 1 2 515 473 lin 0;
#X obj 145 39 inlet;
#X obj 239 114 i;
#X obj 332 155 + 1;
#X obj 332 135 i;
#X obj 145 62 t f f f f, f 21;
#X obj 239 234 -;
#X obj 145 259 -;
#X obj 186 233 *;
#X obj 145 155 i;
#X obj 186 140 -;
#X obj 332 176 tabread \$0-map;
#X obj 239 176 tabread \$0-map;
#X obj 145 176 tabread \$0-map;
#X obj 145 282 outlet;
#X connect 0 0 4 0;
#X connect 1 0 9 1;
#X connect 1 0 11 0;
#X connect 2 0 10 0;
#X connect 3 0 2 0;
#X connect 4 0 8 0;
#X connect 4 1 9 0;
#X connect 4 2 1 0;
#X connect 4 3 3 0;
#X connect 5 0 7 1;
#X connect 6 0 13 0;
#X connect 7 0 6 1;
#X connect 8 0 12 0;
#X connect 9 0 7 0;
#X connect 10 0 5 1;
#X connect 11 0 5 0;
#X connect 12 0 6 0;
#X restore 201 524 pd lin;
#N canvas 1 2 694 478 curve 0;
#X obj 145 39 inlet;
#X obj 239 183 i;
#X obj 332 224 + 1;
#X obj 332 204 i;
#X obj 239 362 -;
#X obj 145 386 -;
#X obj 187 360 *;
#X obj 145 224 i;
#X obj 186 209 -;
#X obj 332 247 tabread \$0-map;
#X obj 239 245 tabread \$0-map;
#X obj 145 245 tabread \$0-map;
#X obj 146 449 outlet;
#X msg 145 62 \$2 \$1;
#X obj 145 131 t f f f f, f 21;
#X obj 145 85 unpack;
#N canvas 42 122 611 398 curve 0;
#X obj 206 23 inlet;
#X obj 396 14 inlet;
#X obj 206 272 pow 1;
#X obj 396 39 moses 0;
#X obj 435 64 + 1;
#X obj 206 361 outlet;
#X obj 306 57 abs;
#X obj 206 220 -;
#X obj 306 78 + 1;
#X obj 206 195 swap 0;
#X obj 206 244 abs;
#X obj 206 304 * 1;
#X obj 206 327 +;
#X obj 306 162 unpack f f f f;
#X msg 306 118 1 \$1 -1 1;
#X msg 402 118 0 \$1 1 0;
#X connect 0 0 9 0;
#X connect 1 0 3 0;
#X connect 2 0 11 0;
#X connect 3 0 6 0;
#X connect 3 1 4 0;
#X connect 4 0 15 0;
#X connect 6 0 8 0;
#X connect 7 0 10 0;
#X connect 8 0 14 0;
#X connect 9 0 7 0;
#X connect 9 1 7 1;
#X connect 10 0 2 0;
#X connect 11 0 12 0;
#X connect 12 0 5 0;
#X connect 13 0 9 1;
#X connect 13 1 2 1;
#X connect 13 2 11 1;
#X connect 13 3 12 1;
#X connect 14 0 13 0;
#X connect 15 0 13 0;
#X restore 187 299 pd curve;
#X connect 0 0 13 0;
#X connect 1 0 8 1;
#X connect 1 0 10 0;
#X connect 2 0 9 0;
#X connect 3 0 2 0;
#X connect 4 0 6 1;
#X connect 5 0 12 0;
#X connect 6 0 5 1;
#X connect 7 0 11 0;
#X connect 8 0 16 0;
#X connect 9 0 4 1;
#X connect 10 0 4 0;
#X connect 11 0 5 0;
#X connect 13 0 15 0;
#X connect 14 0 7 0;
#X connect 14 1 8 0;
#X connect 14 2 1 0;
#X connect 14 3 3 0;
#X connect 15 0 14 0;
#X connect 15 1 16 1;
#X connect 16 0 6 0;
#X restore 320 526 pd curve;
#X connect 0 0 8 0;
#X connect 0 0 9 0;
#X connect 1 0 4 0;
#X connect 1 1 0 0;
#X connect 2 0 20 0;
#X connect 6 0 22 0;
#X connect 7 0 14 0;
#X connect 9 0 2 1;
#X connect 10 0 11 1;
#X connect 11 0 13 0;
#X connect 12 0 11 0;
#X connect 13 0 2 0;
#X connect 15 0 16 0;
#X connect 16 0 10 0;
#X connect 16 0 12 1;
#X connect 16 0 22 1;
#X connect 16 1 10 1;
#X connect 16 1 22 2;
#X connect 17 0 1 0;
#X connect 18 0 3 0;
#X connect 19 0 23 0;
#X connect 20 0 19 0;
#X connect 21 0 20 1;
#X connect 22 0 12 0;
#X connect 23 0 24 0;
#X connect 23 1 18 0;
#X connect 23 2 25 0;
#X connect 24 0 3 0;
#X connect 25 0 3 0;
