#N canvas 390 204 628 545 10;
#X obj 88 180 array random \$0-urn;
#X obj 131 374 tabwrite \$0-urn;
#X msg 417 254 const 1;
#X obj 417 277 s \$0-urn;
#X obj 131 346 f 0;
#X obj 335 314 + 1;
#X obj 298 498 outlet;
#X obj 418 205 array define \$0-urn \$1;
#X obj 88 32 inlet;
#X obj 89 500 outlet;
#X obj 379 29 inlet;
#X obj 418 173 array size \$0-urn;
#X obj 379 76 i;
#X obj 379 99 t b f f;
#X obj 298 314 f;
#X obj 335 337 mod \$1, f 11;
#X msg 313 291 0;
#X obj 335 358 sel 0;
#X obj 298 460 f;
#X obj 333 464 + 1;
#X obj 386 387 s \$0-fill;
#X obj 299 131 s \$0-fill;
#X obj 313 268 r \$0-reset;
#X msg 315 435 0;
#X obj 315 412 r \$0-reset;
#X obj 298 386 sel 0;
#X obj 417 231 r \$0-fill;
#X obj 88 217 t f b f b, f 22;
#N canvas 865 94 631 530 route 0;
#X obj 55 39 inlet;
#N canvas 528 245 640 572 init 0;
#X obj 157 17 inlet;
#X obj 157 54 f \$0;
#X msg 157 85 \; \$1-fill bang \;;
#X connect 0 0 1 0;
#X connect 1 0 2 0;
#X restore 199 92 pd init;
#N canvas 403 2 657 688 args 0;
#X obj 301 293 list fromsymbol;
#X obj 214 153 until;
#X obj 214 178 f;
#X obj 249 181 + 1;
#X obj 261 154 f 0;
#X msg 214 205 get \$1 1;
#X obj 214 230 list store;
#X obj 214 103 t b b l, f 10;
#X obj 421 324 list fromsymbol;
#X obj 214 265 route float symbol;
#X obj 244 416 list tosymbol;
#X obj 382 573 list;
#X obj 283 442 t l;
#X obj 214 487 list prepend;
#X obj 382 396 sel, f 6;
#X obj 294 230 s \$0-stoplistcount;
#X obj 241 129 r \$0-stoplistcount;
#X obj 310 486 r \$0-stoplistcount;
#X obj 420 502 r \$0-stoplistcount;
#X obj 214 80 pdcontrol;
#X msg 214 57 args 0;
#X obj 382 596 list trim;
#X obj 421 301 symbol -;
#X obj 301 316 t a a, f 14;
#X msg 382 367 \$1;
#X obj 382 649 outlet;
#X obj 420 525 t b b;
#X obj 382 620 route bang;
#X obj 244 379 route;
#X obj 214 32 t b b, f 30;
#X obj 214 11 inlet;
#X connect 0 0 23 0;
#X connect 1 0 2 0;
#X connect 2 0 3 0;
#X connect 2 0 5 0;
#X connect 3 0 2 1;
#X connect 4 0 2 1;
#X connect 5 0 6 0;
#X connect 6 0 9 0;
#X connect 6 1 15 0;
#X connect 7 0 1 0;
#X connect 7 1 4 0;
#X connect 7 2 6 1;
#X connect 8 0 14 1;
#X connect 8 0 28 1;
#X connect 9 0 13 0;
#X connect 9 1 0 0;
#X connect 10 0 13 0;
#X connect 11 0 21 0;
#X connect 12 0 13 1;
#X connect 13 0 12 0;
#X connect 13 0 11 1;
#X connect 14 0 11 0;
#X connect 14 0 13 1;
#X connect 16 0 1 1;
#X connect 17 0 13 1;
#X connect 18 0 26 0;
#X connect 19 0 7 0;
#X connect 20 0 19 0;
#X connect 21 0 27 0;
#X connect 22 0 8 0;
#X connect 23 0 28 0;
#X connect 23 1 24 0;
#X connect 24 0 14 0;
#X connect 26 0 11 1;
#X connect 26 1 11 0;
#X connect 27 1 25 0;
#X connect 28 0 10 0;
#X connect 28 1 10 0;
#X connect 29 0 20 0;
#X connect 29 1 22 0;
#X connect 30 0 29 0;
#X restore 118 94 pd args;
#X obj 118 41 loadbang;
#X obj 118 65 t b b, f 14;
#X obj 258 196 list prepend no method for;
#X obj 258 219 list trim;
#X obj 88 311 outlet;
#X msg 105 199 seed \$1;
#X obj 168 247 s \$0-fill;
#X obj 129 225 t b b;
#X obj 129 271 s \$0-reset;
#X obj 88 158 route bang reset seed float;
#X obj 258 242 print random.urn;
#X connect 0 0 12 0;
#X connect 2 0 12 0;
#X connect 3 0 4 0;
#X connect 4 0 2 0;
#X connect 4 1 1 0;
#X connect 5 0 6 0;
#X connect 6 0 13 0;
#X connect 8 0 7 0;
#X connect 10 0 11 0;
#X connect 10 1 9 0;
#X connect 12 0 7 0;
#X connect 12 1 10 0;
#X connect 12 2 8 0;
#X connect 12 4 5 0;
#X restore 88 64 pd route;
#X connect 0 0 27 0;
#X connect 2 0 3 0;
#X connect 4 0 1 0;
#X connect 5 0 15 0;
#X connect 8 0 28 0;
#X connect 10 0 12 0;
#X connect 12 0 13 0;
#X connect 13 0 21 0;
#X connect 13 1 15 1;
#X connect 13 2 11 0;
#X connect 14 0 5 0;
#X connect 14 0 25 0;
#X connect 15 0 14 1;
#X connect 15 0 17 0;
#X connect 16 0 14 1;
#X connect 17 0 20 0;
#X connect 18 0 19 0;
#X connect 18 0 6 0;
#X connect 19 0 18 1;
#X connect 22 0 16 0;
#X connect 23 0 18 1;
#X connect 24 0 23 0;
#X connect 25 0 18 0;
#X connect 26 0 2 0;
#X connect 27 0 9 0;
#X connect 27 1 4 0;
#X connect 27 2 1 1;
#X connect 27 3 14 0;
#X connect 28 0 0 0;
