#N canvas 313 141 1176 647 10;
#X obj 451 154 bng 18 250 50 0 empty empty empty 0 -9 0 10 #fcfcfc #000000 #000000;
#X floatatom 451 524 5 0 0 0 - - - 0;
#X msg 528 460 seed 123;
#X text 475 155 bang for output;
#X text 592 461 set seed;
#X text 25 137 tags/messages:;
#X text 47 275 -seed: set seed nr.;
#N canvas 0 0 450 300 draw 0;
#X obj 61 51 t f b;
#X obj 208 102 f;
#X obj 249 99 + 1;
#X obj 249 122 mod 50;
#X obj 253 184 sel 0;
#X obj 208 162 t f f;
#X msg 253 207 \; random.walk-help const 0;
#X obj 61 248 tabwrite random.walk-help;
#X obj 61 25 inlet;
#X connect 0 0 7 0;
#X connect 0 1 1 0;
#X connect 1 0 2 0;
#X connect 1 0 5 0;
#X connect 2 0 3 0;
#X connect 3 0 1 1;
#X connect 4 0 6 0;
#X connect 5 0 7 1;
#X connect 5 1 4 0;
#X connect 8 0 0 0;
#X restore 451 551 pd draw array;
#N canvas 0 50 450 250 (subpatch) 0;
#X array random.walk-help 50 float 2;
#X coords 0 100 50 0 200 140 1 0 0;
#X restore 658 51 graph;
#X obj 451 103 tgl 18 0 empty empty empty 0 -9 0 10 #fcfcfc #000000 #000000 0 1;
#X obj 451 126 metro 100;
#X msg 469 183 start 50;
#X msg 520 424 range 100;
#X msg 497 245 mag 1 5;
#X text 19 16 [random.walk];
#X text 106 44 a random walk or "drunk" generator;
#X text 586 424 set range 0 to N-1;
#X text 47 205 -start: start at no. N (default 0);
#X text 47 181 -range: set range 0 to N-1 (default 0 to 2^32);
#X text 48 229 -mag: set magnitude (default 1);
#X text 526 212 set maximum deviation from the last output;
#X text 528 183 start at N;
#X text 616 333 (down up repeat);
#X text 552 243 magnitudes can also be set individualy (down up);
#X text 628 377 (down up repeat change);
#X text 630 363 weights the possibility that the last deviation repeats;
#X text 47 251 -weights: set weights (down up repeat change);
#X msg 479 213 mag 10;
#X msg 527 370 weights 1 1 0 5;
#X obj 452 497 random.walk -range 100 -start 50 -mag 3;
#X msg 523 324 weights 1 1 4;
#X msg 511 279 weights 4 1;
#X text 597 271 weights the possibility that the next value is smaller or larger than the current value (down up);
#X text 618 319 weights the possibility that the last value repeats;
#X connect 0 0 29 0;
#X connect 1 0 7 0;
#X connect 2 0 29 0;
#X connect 9 0 10 0;
#X connect 10 0 0 0;
#X connect 11 0 29 0;
#X connect 12 0 29 0;
#X connect 13 0 29 0;
#X connect 27 0 29 0;
#X connect 28 0 29 0;
#X connect 29 0 1 0;
#X connect 30 0 29 0;
#X connect 31 0 29 0;
