#N canvas 526 278 584 360 10;
#X obj 367 153 bng 18 250 50 0 empty empty empty 0 -9 0 10 #fcfcfc #000000 #000000;
#X floatatom 367 292 5 0 0 0 - - - 0;
#X floatatom 436 246 5 0 0 0 - - - 0;
#X msg 395 218 seed 123;
#X text 391 154 bang for output;
#X text 472 246 reset range;
#X text 24 123 arguments:;
#X text 50 146 \$1: range (0 to N-1);
#X text 459 219 set seed;
#X text 24 180 tags/messages:;
#X obj 367 268 random.urn 4;
#X text 19 16 [random.urn];
#X floatatom 436 291 5 0 0 0 - - - 0;
#X msg 384 185 reset;
#X text 42 205 reset: reset to the begining of the 1st cycle;
#X text 106 42 outputs pseudo random integers in range without repetition. When all numbers have been output \, a new cycle starts which is indicated with the no. send to the right output.;
#X text 471 291 cycle no;
#X text 41 224 -seed: set seed;
#X connect 0 0 10 0;
#X connect 2 0 10 1;
#X connect 3 0 10 0;
#X connect 10 0 1 0;
#X connect 10 1 12 0;
#X connect 13 0 10 0;
