#N canvas 133 98 655 666 10;
#X obj 220 417 +, f 6;
#X obj 76 82 t b b;
#X obj 253 378 * -1;
#X obj 253 356 + 1;
#X obj 317 352 + 1;
#X obj 76 32 inlet;
#N canvas 608 92 631 530 route 0;
#X obj 55 39 inlet;
#N canvas 60 2 640 352 init 0;
#X obj 157 17 inlet;
#X obj 157 53 pack \$0 4.29497e+09;
#X msg 157 82 \; \$1-range \$2 \; \$1-mag 1 1 \; \$1-weights 0 1 1 0 0 \;;
#X connect 0 0 1 0;
#X connect 1 0 2 0;
#X restore 199 92 pd init;
#N canvas 403 2 657 688 args 0;
#X obj 301 293 list fromsymbol;
#X obj 214 153 until;
#X obj 214 178 f;
#X obj 249 181 + 1;
#X obj 261 154 f 0;
#X msg 214 205 get \$1 1;
#X obj 214 230 list store;
#X obj 214 103 t b b l, f 10;
#X obj 421 324 list fromsymbol;
#X obj 214 265 route float symbol;
#X obj 244 416 list tosymbol;
#X obj 382 573 list;
#X obj 283 442 t l;
#X obj 214 487 list prepend;
#X obj 382 396 sel, f 6;
#X obj 294 230 s \$0-stoplistcount;
#X obj 241 129 r \$0-stoplistcount;
#X obj 310 486 r \$0-stoplistcount;
#X obj 420 502 r \$0-stoplistcount;
#X obj 214 80 pdcontrol;
#X msg 214 57 args 0;
#X obj 382 596 list trim;
#X obj 421 301 symbol -;
#X obj 301 316 t a a, f 14;
#X msg 382 367 \$1;
#X obj 382 649 outlet;
#X obj 420 525 t b b;
#X obj 382 620 route bang;
#X obj 244 379 route;
#X obj 214 32 t b b, f 30;
#X obj 214 11 inlet;
#X connect 0 0 23 0;
#X connect 1 0 2 0;
#X connect 2 0 3 0;
#X connect 2 0 5 0;
#X connect 3 0 2 1;
#X connect 4 0 2 1;
#X connect 5 0 6 0;
#X connect 6 0 9 0;
#X connect 6 1 15 0;
#X connect 7 0 1 0;
#X connect 7 1 4 0;
#X connect 7 2 6 1;
#X connect 8 0 14 1;
#X connect 8 0 28 1;
#X connect 9 0 13 0;
#X connect 9 1 0 0;
#X connect 10 0 13 0;
#X connect 11 0 21 0;
#X connect 12 0 13 1;
#X connect 13 0 12 0;
#X connect 13 0 11 1;
#X connect 14 0 11 0;
#X connect 14 0 13 1;
#X connect 16 0 1 1;
#X connect 17 0 13 1;
#X connect 18 0 26 0;
#X connect 19 0 7 0;
#X connect 20 0 19 0;
#X connect 21 0 27 0;
#X connect 22 0 8 0;
#X connect 23 0 28 0;
#X connect 23 1 24 0;
#X connect 24 0 14 0;
#X connect 26 0 11 1;
#X connect 26 1 11 0;
#X connect 27 1 25 0;
#X connect 28 0 10 0;
#X connect 28 1 10 0;
#X connect 29 0 20 0;
#X connect 29 1 22 0;
#X connect 30 0 29 0;
#X restore 118 94 pd args;
#X obj 118 41 loadbang;
#X obj 118 65 t b b, f 14;
#X obj 467 257 print map;
#X obj 467 211 list prepend no method for;
#X obj 467 234 list trim;
#X obj 135 312 s \$0-range;
#X obj 247 254 list length;
#X obj 214 229 t a a;
#X obj 247 277 == 1;
#X obj 239 397 pack;
#X obj 214 304 list prepend;
#X obj 214 327 list trim;
#X obj 239 374 t f f;
#X obj 214 350 route 0 1;
#X obj 214 429 s \$0-mag;
#X obj 386 253 s \$0-start;
#X obj 97 425 outlet;
#X obj 363 327 array set \$0-weights;
#X obj 97 146 route bang range mag weights start seed, f 49;
#X obj 361 189 s \$0-seed;
#N canvas 465 287 450 300 weightslist 0;
#X obj 117 44 inlet;
#X obj 144 93 list length;
#X obj 117 67 t a a;
#X obj 117 125 list prepend;
#X obj 117 148 list trim;
#X obj 117 171 route 1 2 3 4, f 26;
#X obj 117 193 t f f;
#X obj 155 244 list 0 0;
#X obj 117 216 pack;
#X obj 215 244 list 0;
#X obj 231 276 outlet;
#X connect 0 0 2 0;
#X connect 1 0 3 1;
#X connect 2 0 3 0;
#X connect 2 1 1 0;
#X connect 3 0 4 0;
#X connect 4 0 5 0;
#X connect 5 0 6 0;
#X connect 5 1 7 0;
#X connect 5 2 9 0;
#X connect 5 3 10 0;
#X connect 6 0 8 0;
#X connect 6 1 8 1;
#X connect 7 0 10 0;
#X connect 8 0 7 0;
#X connect 9 0 10 0;
#X restore 363 296 pd weightslist;
#X connect 0 0 21 0;
#X connect 2 0 21 0;
#X connect 3 0 4 0;
#X connect 4 0 2 0;
#X connect 4 1 1 0;
#X connect 6 0 7 0;
#X connect 7 0 5 0;
#X connect 9 0 11 0;
#X connect 10 0 13 0;
#X connect 10 1 9 0;
#X connect 11 0 13 1;
#X connect 12 0 17 0;
#X connect 13 0 14 0;
#X connect 14 0 16 0;
#X connect 15 0 12 0;
#X connect 15 1 12 1;
#X connect 16 0 17 0;
#X connect 16 1 15 0;
#X connect 21 0 19 0;
#X connect 21 1 8 0;
#X connect 21 2 10 0;
#X connect 21 3 23 0;
#X connect 21 4 18 0;
#X connect 21 5 22 0;
#X connect 21 6 6 0;
#X connect 23 0 20 0;
#X restore 76 56 pd route;
#X obj 330 181 r \$0-mag;
#X obj 330 204 unpack;
#X obj 253 330 random 1;
#X obj 317 329 random 1;
#X obj 91 364 r \$0-start;
#X obj 76 550 outlet;
#X obj 330 226 abs;
#X obj 253 153 array random \$0-weights;
#X msg 191 276 seed \$1;
#X obj 191 253 r \$0-seed;
#X msg 263 117 seed \$1;
#X obj 263 94 r \$0-seed;
#X obj 409 177 r \$0-range;
#X obj 363 230 clip 0 1;
#X obj 330 262 clip 0 1;
#X obj 253 61 array define \$0-weights 4;
#X obj 253 198 sel 0 1;
#X obj 101 448 spigot 1;
#X obj 146 415 != 2;
#X obj 76 517 i;
#N canvas 0 0 450 300 wrap 0;
#X obj 100 80 * -1;
#X obj 100 49 moses 0;
#X obj 170 102 * -1;
#X obj 100 169 outlet;
#X obj 100 18 inlet;
#X obj 245 21 inlet;
#X obj 245 107 * 2;
#X obj 143 75 moses;
#X obj 170 125 +;
#X connect 0 0 3 0;
#X connect 1 0 0 0;
#X connect 1 1 7 0;
#X connect 2 0 8 0;
#X connect 4 0 1 0;
#X connect 5 0 6 0;
#X connect 5 0 7 1;
#X connect 6 0 8 1;
#X connect 7 0 3 0;
#X connect 7 1 2 0;
#X connect 8 0 3 0;
#X restore 220 476 pd wrap;
#X obj 259 449 r \$0-range;
#X connect 0 0 27 0;
#X connect 1 0 26 0;
#X connect 1 1 14 0;
#X connect 2 0 0 1;
#X connect 3 0 2 0;
#X connect 4 0 0 1;
#X connect 5 0 6 0;
#X connect 6 0 1 0;
#X connect 7 0 8 0;
#X connect 8 0 13 0;
#X connect 8 1 20 0;
#X connect 9 0 3 0;
#X connect 10 0 4 0;
#X connect 11 0 26 1;
#X connect 13 0 21 0;
#X connect 14 0 23 0;
#X connect 14 0 25 0;
#X connect 15 0 9 0;
#X connect 15 0 10 0;
#X connect 16 0 15 0;
#X connect 17 0 14 0;
#X connect 18 0 17 0;
#X connect 19 0 20 2;
#X connect 19 0 21 2;
#X connect 20 0 10 1;
#X connect 21 0 9 1;
#X connect 23 0 9 0;
#X connect 23 1 10 0;
#X connect 24 0 26 1;
#X connect 25 0 24 1;
#X connect 26 0 12 0;
#X connect 26 0 0 0;
#X connect 27 0 24 0;
#X connect 28 0 27 1;
