#N canvas 616 200 637 531 10;
#X obj 187 88 r \$0-in;
#X obj 187 111 unpack;
#X obj 151 149 clip~ 0 1;
#X obj 151 185 -~;
#X obj 186 183 -~;
#X obj 151 209 /~;
#X obj 151 232 abs~;
#X obj 152 57 inlet~;
#X obj 152 393 *~;
#X obj 201 391 -~;
#X obj 152 425 +~;
#X obj 152 455 outlet~;
#X obj 201 321 sig~;
#N canvas 733 70 631 348 route 0;
#X obj 55 39 inlet;
#N canvas 60 2 640 572 init 0;
#X obj 157 17 inlet;
#X obj 157 53 f \$0;
#X msg 157 82 \; \$1-in 0 1 \; \$1-out 0 1 \;;
#X connect 0 0 1 0;
#X connect 1 0 2 0;
#X restore 199 92 pd init;
#N canvas 403 2 657 688 args 0;
#X obj 301 293 list fromsymbol;
#X obj 214 153 until;
#X obj 214 178 f;
#X obj 249 181 + 1;
#X obj 261 154 f 0;
#X msg 214 205 get \$1 1;
#X obj 214 230 list store;
#X obj 214 103 t b b l, f 10;
#X obj 421 324 list fromsymbol;
#X obj 214 265 route float symbol;
#X obj 244 416 list tosymbol;
#X obj 382 573 list;
#X obj 283 442 t l;
#X obj 214 487 list prepend;
#X obj 382 396 sel, f 6;
#X obj 294 230 s \$0-stoplistcount;
#X obj 241 129 r \$0-stoplistcount;
#X obj 310 486 r \$0-stoplistcount;
#X obj 420 502 r \$0-stoplistcount;
#X obj 214 80 pdcontrol;
#X msg 214 57 args 0;
#X obj 382 596 list trim;
#X obj 421 301 symbol -;
#X obj 301 316 t a a, f 14;
#X msg 382 367 \$1;
#X obj 382 649 outlet;
#X obj 420 525 t b b;
#X obj 382 620 route bang;
#X obj 244 379 route;
#X obj 214 32 t b b, f 30;
#X obj 214 11 inlet;
#X connect 0 0 23 0;
#X connect 1 0 2 0;
#X connect 2 0 3 0;
#X connect 2 0 5 0;
#X connect 3 0 2 1;
#X connect 4 0 2 1;
#X connect 5 0 6 0;
#X connect 6 0 9 0;
#X connect 6 1 15 0;
#X connect 7 0 1 0;
#X connect 7 1 4 0;
#X connect 7 2 6 1;
#X connect 8 0 14 1;
#X connect 8 0 28 1;
#X connect 9 0 13 0;
#X connect 9 1 0 0;
#X connect 10 0 13 0;
#X connect 11 0 21 0;
#X connect 12 0 13 1;
#X connect 13 0 12 0;
#X connect 13 0 11 1;
#X connect 14 0 11 0;
#X connect 14 0 13 1;
#X connect 16 0 1 1;
#X connect 17 0 13 1;
#X connect 18 0 26 0;
#X connect 19 0 7 0;
#X connect 20 0 19 0;
#X connect 21 0 27 0;
#X connect 22 0 8 0;
#X connect 23 0 28 0;
#X connect 23 1 24 0;
#X connect 24 0 14 0;
#X connect 26 0 11 1;
#X connect 26 1 11 0;
#X connect 27 1 25 0;
#X connect 28 0 10 0;
#X connect 28 1 10 0;
#X connect 29 0 20 0;
#X connect 29 1 22 0;
#X connect 30 0 29 0;
#X restore 118 94 pd args;
#X obj 118 41 loadbang;
#X obj 118 65 t b b, f 14;
#X obj 97 299 s \$0-in;
#X obj 168 300 s \$0-out;
#X obj 97 179 route in out;
#X connect 0 0 7 0;
#X connect 2 0 7 0;
#X connect 3 0 4 0;
#X connect 4 0 2 0;
#X connect 4 1 1 0;
#X connect 7 0 5 0;
#X connect 7 1 6 0;
#X restore 363 86 pd route;
#X obj 363 59 inlet;
#X obj 167 268 r \$0-out;
#X obj 167 291 unpack;
#X text 122 292 bottom;
#X text 212 294 ceiling;
#X connect 0 0 1 0;
#X connect 1 0 2 1;
#X connect 1 0 3 1;
#X connect 1 0 4 0;
#X connect 1 1 2 2;
#X connect 1 1 4 1;
#X connect 2 0 3 0;
#X connect 3 0 5 0;
#X connect 4 0 5 1;
#X connect 5 0 6 0;
#X connect 6 0 8 0;
#X connect 7 0 2 0;
#X connect 8 0 10 0;
#X connect 9 0 8 1;
#X connect 10 0 11 0;
#X connect 12 0 9 0;
#X connect 14 0 13 0;
#X connect 15 0 16 0;
#X connect 16 0 9 1;
#X connect 16 0 10 1;
#X connect 16 1 12 0;
