#N canvas 1 57 450 300 12;
#X obj 137 56 inlet~;
#X obj 142 135 snapshot~;
#X obj 142 160 outlet;
#X obj 245 60 loadbang;
#X obj 245 85 metro \$1;
#X obj 329 112 block~ 1;
#X connect 0 0 1 0;
#X connect 1 0 2 0;
#X connect 3 0 4 0;
#X connect 4 0 1 0;
